<svg width="16" height="16" viewBox="0 0 16 16" fill="none" xmlns="http://www.w3.org/2000/svg">
<path d="M7.37508 8.69364V11.402C7.37508 11.5793 7.43491 11.7278 7.55456 11.8475C7.67421 11.9672 7.82271 12.027 8.00006 12.027C8.17741 12.027 8.32591 11.9672 8.44556 11.8475C8.56521 11.7278 8.62504 11.5793 8.62504 11.402V8.69364H11.3334C11.5107 8.69364 11.6592 8.63382 11.7789 8.51416C11.8985 8.39451 11.9584 8.24601 11.9584 8.06866C11.9584 7.89132 11.8985 7.74282 11.7789 7.62316C11.6592 7.50351 11.5107 7.44369 11.3334 7.44369H8.62504V4.73533C8.62504 4.55798 8.56521 4.40948 8.44556 4.28983C8.32591 4.17018 8.17741 4.11035 8.00006 4.11035C7.82271 4.11035 7.67421 4.17018 7.55456 4.28983C7.43491 4.40948 7.37508 4.55798 7.37508 4.73533V7.44369H4.66673C4.48938 7.44369 4.34088 7.50351 4.22123 7.62316C4.10157 7.74282 4.04175 7.89132 4.04175 8.06866C4.04175 8.24601 4.10157 8.39451 4.22123 8.51416C4.34088 8.63382 4.48938 8.69364 4.66673 8.69364H7.37508ZM2.42316 15.152C2.00222 15.152 1.64591 15.0061 1.35425 14.7145C1.06258 14.4228 0.916748 14.0665 0.916748 13.6456V2.49177C0.916748 2.07082 1.06258 1.71452 1.35425 1.42285C1.64591 1.13118 2.00222 0.985352 2.42316 0.985352H13.577C13.9979 0.985352 14.3542 1.13118 14.6459 1.42285C14.9375 1.71452 15.0834 2.07082 15.0834 2.49177V13.6456C15.0834 14.0665 14.9375 14.4228 14.6459 14.7145C14.3542 15.0061 13.9979 15.152 13.577 15.152H2.42316ZM2.42316 13.902H13.577C13.6411 13.902 13.6998 13.8753 13.7533 13.8219C13.8067 13.7684 13.8334 13.7097 13.8334 13.6456V2.49177C13.8334 2.42766 13.8067 2.36889 13.7533 2.31546C13.6998 2.26204 13.6411 2.23533 13.577 2.23533H2.42316C2.35905 2.23533 2.30028 2.26204 2.24685 2.31546C2.19344 2.36889 2.16673 2.42766 2.16673 2.49177V13.6456C2.16673 13.7097 2.19344 13.7684 2.24685 13.8219C2.30028 13.8753 2.35905 13.902 2.42316 13.902Z" fill="#787486"/>
</svg>
