<svg width="8" height="14" viewBox="0 0 8 14" fill="none" xmlns="http://www.w3.org/2000/svg">
<path d="M6.22562 6.99998L0.576099 1.35046C0.427061 1.20142 0.354461 1.02402 0.358299 0.818256C0.362149 0.612481 0.438592 0.435082 0.58763 0.286057C0.736667 0.137019 0.914067 0.0625 1.11983 0.0625C1.32559 0.0625 1.50299 0.137019 1.65203 0.286057L7.39386 6.03942C7.52944 6.17499 7.62992 6.32691 7.69531 6.49518C7.76068 6.66345 7.79337 6.83172 7.79337 6.99998C7.79337 7.16824 7.76068 7.33651 7.69531 7.50479C7.62992 7.67305 7.52944 7.82497 7.39386 7.96054L1.6405 13.7139C1.49146 13.8629 1.31598 13.9355 1.11405 13.9317C0.912142 13.9279 0.736667 13.8514 0.58763 13.7024C0.438592 13.5533 0.364073 13.3759 0.364073 13.1702C0.364073 12.9644 0.438592 12.787 0.58763 12.638L6.22562 6.99998Z" fill="#333236"/>
</svg>
