<svg width="18" height="15" viewBox="0 0 18 15" fill="none" xmlns="http://www.w3.org/2000/svg">
<path d="M14.5115 12.3193H3.07821C2.83635 12.3193 2.63846 12.5162 2.63846 12.7568V13.6318C2.63846 13.8725 2.83635 14.0693 3.07821 14.0693H14.5115C14.7534 14.0693 14.9513 13.8725 14.9513 13.6318V12.7568C14.9513 12.5162 14.7534 12.3193 14.5115 12.3193ZM16.2705 3.56934C15.5422 3.56934 14.9513 4.15723 14.9513 4.88184C14.9513 5.07598 14.9953 5.25645 15.0722 5.42324L13.0824 6.60996C12.6591 6.86152 12.1122 6.71934 11.8676 6.29277L9.62764 2.39355C9.92171 2.15293 10.1141 1.79199 10.1141 1.38184C10.1141 0.657227 9.5232 0.0693359 8.79487 0.0693359C8.06655 0.0693359 7.47564 0.657227 7.47564 1.38184C7.47564 1.79199 7.66803 2.15293 7.96211 2.39355L5.72216 6.29277C5.47756 6.71934 4.92788 6.86152 4.50737 6.60996L2.52028 5.42324C2.59449 5.25918 2.64121 5.07598 2.64121 4.88184C2.64121 4.15723 2.0503 3.56934 1.32198 3.56934C0.593654 3.56934 0 4.15723 0 4.88184C0 5.60645 0.590905 6.19434 1.31923 6.19434C1.39069 6.19434 1.46215 6.1834 1.53086 6.17246L3.51795 11.4443H14.0718L16.0589 6.17246C16.1276 6.1834 16.1991 6.19434 16.2705 6.19434C16.9988 6.19434 17.5897 5.60645 17.5897 4.88184C17.5897 4.15723 16.9988 3.56934 16.2705 3.56934Z" fill="#FDD446"/>
</svg>
