<svg width="200" height="280" viewBox="0 0 200 280" fill="none" xmlns="http://www.w3.org/2000/svg">
<g clip-path="url(#clip0_1_755)">
<path d="M199.969 17.0424C199.877 16.8902 199.661 16.7888 199.446 16.8395C197.569 17.4989 195.692 18.0569 193.754 18.6403C188.431 20.2636 182.892 21.3288 177.354 22.3941C171.015 23.5608 164.554 24.3978 158.246 25.6914C152.8 26.782 147.385 28.1009 142.154 29.8257C138.215 31.0938 134.338 32.4635 130.708 34.2136C126.4 36.1666 122.923 39.0834 119.538 41.9748C116.431 44.6634 113.292 47.3519 110.554 50.3195C109.015 51.9935 107.723 53.8197 106.492 55.6458C108.431 49.6093 111.138 43.522 116.092 38.7029C116.461 38.3225 116.031 37.8659 115.508 38.0688C114.246 38.5761 113.077 39.2356 111.877 39.8443C102.708 44.9678 94.523 51.334 87.4769 58.3597C84.0307 61.8346 80.7076 65.3855 77.9692 69.2661C74.7999 73.8062 72.3999 78.7014 70.6769 83.7487C70.4922 80.7558 70.7999 77.7629 71.2923 74.7954C71.3846 74.2627 71.4769 73.7555 71.5076 73.2228C71.5076 72.8677 71.6307 72.3605 71.1999 72.1576C70.8923 72.0307 70.5846 72.1576 70.3692 72.3605C70.0923 72.5888 69.8769 72.8424 69.6307 73.096C69.1384 73.6287 68.6461 74.1867 68.1846 74.7447C66.6461 76.5455 65.2615 78.4477 64.0615 80.4261C61.1076 85.4227 58.3999 90.4701 55.6615 95.5428C52.8923 100.616 50.3384 105.79 47.6615 110.888C45.1076 115.707 42.3076 120.45 39.4153 125.142C37.8461 127.653 36.2461 130.164 34.3692 132.548C33.5692 133.563 32.7384 134.552 31.8769 135.516C31.9999 135.313 32.123 135.135 32.2461 134.933C34.7692 130.849 36.4923 126.486 38.0615 122.099C39.3538 119.283 40.6461 116.468 42.0923 113.729C43.7846 110.609 45.2923 107.438 46.7384 104.243C49.6307 98.206 53.1384 92.4231 57.1384 86.8178C59.723 83.1908 62.4922 79.6398 65.0153 75.9621C67.3846 72.5127 69.2615 68.8603 71.4153 65.3348C73.0153 62.6969 74.6461 60.0591 76.0307 57.3452C76.4307 56.5843 76.8307 55.798 77.1999 55.0117C77.3538 54.6313 77.5384 54.2255 77.6307 53.8197C77.6307 53.6675 77.6615 53.4899 77.5384 53.3378C77.2615 52.9827 76.7076 53.1095 76.3692 53.3378C75.3846 53.9465 74.4615 54.5806 73.5076 55.24C70.4307 57.3959 67.2307 59.425 63.9384 61.3527C70.9846 54.3016 78.4923 47.0983 81.8769 38.221C82.123 37.4601 82.7999 35.5578 82.123 34.9238C81.6615 34.594 81.1384 35.0506 80.8615 35.3296C77.9999 38.2718 74.9846 41.1125 71.6307 43.6742C72.923 42.0002 74.1538 40.2755 75.2615 38.5C77.1076 35.4564 78.923 32.3874 80.4307 29.2169C82.2153 25.3363 83.5692 21.3542 84.9846 17.3975C86.4307 13.0857 87.723 8.72312 89.2923 4.43666C89.4461 4.03084 89.5999 3.62502 89.6923 3.19384C89.6923 3.06702 89.7538 2.91484 89.6923 2.78802C89.5999 2.55975 89.2615 2.40757 88.9846 2.48366C88.7384 2.53439 88.4923 2.66121 88.2769 2.81339C85.1384 5.2483 82.3384 7.96221 79.323 10.4732C77.1076 12.3501 74.8615 14.2524 72.7384 16.2054C68.4615 20.2128 64.6461 24.5754 61.6307 29.293C58.8923 33.5795 56.8923 38.221 55.6615 42.964C53.9999 49.1528 53.4461 55.4937 52.3999 61.7585C51.1999 59.0446 50.4923 56.1785 50.3384 53.2617C50.2769 52.2978 50.2153 51.2833 50.1538 50.2434C50.1538 49.7615 50.1538 48.7216 49.2615 48.9498C48.9846 49.0767 48.8307 49.3303 48.6769 49.5839C48.3999 50.0405 48.1538 50.5224 47.9076 51.0043C47.1384 52.4754 46.2769 53.8957 45.4769 55.3415C43.1999 59.3997 41.2307 63.61 40.2153 67.9979C39.323 71.5996 38.8615 75.2773 38.8615 78.9297C38.8615 84.0531 39.8153 89.1005 39.7846 94.2493C38.0923 91.9919 36.3692 89.7092 35.6615 87.0714C35.2923 85.8286 35.0153 84.5858 34.7692 83.3429C34.7076 82.9878 34.6153 82.6074 34.5538 82.2523C34.4923 81.9987 34.4923 81.6689 34.2461 81.4914C33.6923 81.1363 33.323 81.745 33.1999 82.1255C32.1538 84.8647 31.6307 87.7562 31.5076 90.6477C31.3538 93.5645 31.6923 96.4813 32.0307 99.3981C32.3384 102.036 32.6769 104.674 32.8923 107.337C32.7384 108.301 32.6769 109.265 32.5846 110.228C32.2153 114.971 31.5692 119.714 30.4615 124.381C29.723 128.135 28.7692 131.838 27.1692 135.44C26.2461 138.002 25.0461 140.487 23.5384 142.846C23.2923 143.176 23.0769 143.531 22.8615 143.861C19.8769 148.248 17.1384 152.738 14.123 157.1C12.3076 159.662 10.5538 162.275 8.92303 164.938C7.72303 166.662 6.61533 168.413 5.66149 170.213C4.83072 171.735 4.03072 173.282 3.29226 174.83C3.01533 175.489 2.21533 176.808 2.6461 177.467C3.29226 177.949 3.81533 177.315 4.21533 176.63C4.30764 176.554 4.39995 176.478 4.46149 176.402C4.70764 176.123 4.92303 175.844 5.10764 175.54C5.59995 174.855 6.09226 174.195 6.5538 173.536C8.58457 170.619 10.5538 167.677 12.5538 164.735C15.5384 160.169 18.7999 155.731 22.0923 151.292C22.6461 150.557 23.1692 149.821 23.723 149.06C24.3999 148.248 25.0769 147.462 25.7846 146.651C27.0461 145.23 28.3999 143.861 29.8769 142.592C31.6923 140.944 33.9692 139.346 36.0923 137.951C39.1692 135.896 41.9384 133.563 44.6461 131.204C50.9538 125.548 56.8923 119.613 63.0461 113.83C67.1384 109.772 71.5384 105.866 76.2461 102.315C79.723 99.9054 83.323 97.5973 86.9846 95.3907C92.8307 91.9412 98.9846 88.8722 104.8 85.372C111.661 81.2377 118.369 76.9259 124.523 72.0815C124.708 71.9039 124.923 71.701 124.8 71.4474C124.677 71.1177 124.185 71.1684 123.846 71.2445C122.461 71.5488 121.138 72.0054 119.785 72.2844C118.4 72.538 116.985 72.7663 115.6 72.9692C111.815 73.5779 107.938 73.8316 104.092 73.8569C106.277 73.1721 108.492 72.5127 110.708 71.9039C116.215 70.5343 121.785 69.3676 127.169 67.6936C136.738 64.9797 145.108 60.1098 152.769 54.7581C154.646 53.4646 156.554 52.171 158.277 50.7253C158.585 50.4209 159.046 50.1419 159.108 49.7108C159.108 49.2035 158.369 49.2035 157.908 49.3049C153.6 50.0658 149.261 50.8014 144.892 51.1818C142 51.4101 138.985 51.5877 136.092 51.1565C139.446 50.3195 142.831 49.5839 146.277 49.0006C149.477 48.4679 152.708 47.9607 155.815 47.1744C160.646 46.0077 164.985 43.7249 168.677 40.9349C170.892 39.1848 172.954 37.3079 174.985 35.4057C177.138 33.3766 179.077 31.1953 181.354 29.2423C184.338 26.6552 187.6 24.2964 191.077 22.1912C193.661 20.5172 196.431 19.0968 199.292 17.7526C199.508 17.6511 199.723 17.6004 199.938 17.4989C200.123 17.3975 200.185 17.2199 200.092 17.0424H199.969ZM31.8153 137.545C31.8153 137.545 31.8153 137.545 31.7538 137.545H31.7846H31.8153ZM39.1692 110.279C41.5384 103.887 43.8153 97.4705 46.2769 91.1042C48.5846 84.5857 50.8923 78.0673 53.323 71.5996C56.0307 63.9397 58.1846 56.1531 61.0461 48.5187C63.0769 43.1416 65.3538 37.8152 67.9076 32.5903C70.2153 27.8727 72.7999 23.2311 76.3076 19.0208C73.4461 24.6261 70.4923 30.1808 67.9999 35.8876C65.5999 40.8842 63.5692 45.9823 61.8153 51.1565C57.5384 62.5955 54.9538 74.4149 50.8307 85.8793C49.0769 90.952 47.1076 95.974 44.9846 100.971C43.4769 104.547 41.6923 108.123 40.2153 111.699C36.923 119.638 33.8769 127.653 30.123 135.465C30.0615 135.516 29.9999 135.567 29.9384 135.617C29.8153 135.592 29.6923 135.617 29.5999 135.643C30.2461 133.969 30.8615 132.269 31.3846 130.57C33.8769 123.773 36.6153 117.051 39.1692 110.279ZM131.661 47.9353C128.092 49.9644 124.523 51.9935 121.138 54.2001C115.508 57.9032 110.031 61.7331 104.585 65.6137C101.415 67.9472 98.5538 70.5597 95.5692 73.0707C92.6153 75.607 89.6307 78.0927 86.8307 80.7305C83.1076 84.1546 79.2923 87.5279 75.723 91.0788C72.5846 94.1225 69.723 97.369 66.8923 100.616C64.7999 102.924 62.6769 105.232 60.7076 107.616C58.3692 110.381 55.9384 113.069 53.5999 115.834C51.2615 118.624 48.9538 121.414 46.6769 124.229C45.2307 126.005 43.7846 127.805 42.0923 129.454C40.0923 131.407 38.0307 133.461 35.7538 135.262C34.8923 135.896 34.0615 136.53 33.2307 137.19C33.2307 137.19 33.2307 137.19 33.1999 137.19C32.7999 137.114 32.7999 136.809 32.8923 136.556C34.523 135.059 36.1538 133.588 37.7538 132.066C39.6923 130.215 41.4461 128.237 43.0769 126.207C51.7538 115.758 60.523 105.333 69.8461 95.2385C73.323 91.51 76.923 87.8323 80.7999 84.3828C87.4769 78.5492 94.3692 72.9185 101.261 67.237C110.154 59.9323 119.631 53.0841 129.938 47.1744C138.154 42.6089 146.892 38.7029 155.908 35.3296C147.477 39.058 139.6 43.5981 131.661 47.9607V47.9353Z" fill="#5534DA"/>
<path d="M139.231 176.275C138.985 176.706 138.646 177.086 138.277 177.442C134.4 180.764 128.677 182.489 123.262 183.377C117.785 184.315 112.154 183.453 106.8 182.464C112.123 178.837 118.092 174.601 119.292 168.691C120.462 161.615 112.369 157.024 104.585 156.719C78.5539 156.009 55.0462 167.651 32.9846 177.721C24.6154 181.5 15.2923 186.344 5.35386 184.442C3.96924 184.112 2.55386 183.377 2.12309 182.159C2.15386 181.829 1.96924 181.449 1.56924 181.297C-1.50768 180.79 0.676937 184.366 2.09232 185C14.3077 190.757 31.2923 180.079 42.0923 175.463C53.2308 170.441 64.7385 165.368 76.8616 162.097C86.9231 159.636 98.8308 156.897 109.2 159.205C114.492 160.473 118.615 165.039 116.923 169.604C114.8 174.88 109.292 178.608 104.154 181.906C96.0616 180.308 87.6616 178.558 79.2923 179.547C74.6769 180.232 69.3539 181.576 67.0462 185.228C63.4462 191.214 72.4616 192.381 77.6923 192.254C87.5077 192 96.8616 188.678 104.615 183.782C113.415 185.685 122.123 186.395 130.708 183.402C134.585 181.931 138.985 180.308 141.077 177.036C141.723 176.047 139.815 175.235 139.2 176.224L139.231 176.275ZM77.4154 190.555C74.5846 190.377 69.6 190.707 68.4 188.094C68.2154 184.797 72.6462 182.869 75.9693 182.032C84.4923 179.902 93.4769 181.677 101.908 183.301C94.8 187.587 86.2769 190.352 77.4154 190.555Z" fill="#5534DA"/>
</g>
<path d="M13.2721 266.219V234.525H0.796143V227.159H34.7708V234.525H22.2949V266.219H13.2721Z" fill="#5534DA"/>
<path d="M54.6039 266.219V260.36L54.0469 259.077V248.586C54.0469 246.726 53.4714 245.276 52.3203 244.234C51.2064 243.192 49.4798 242.672 47.1406 242.672C45.5439 242.672 43.9659 242.932 42.4064 243.453C40.884 243.936 39.5844 244.606 38.5077 245.462L35.3887 239.379C37.0224 238.226 38.9904 237.333 41.2925 236.701C43.5946 236.069 45.9338 235.752 48.3102 235.752C52.8773 235.752 56.4233 236.831 58.9482 238.989C61.4731 241.146 62.7355 244.513 62.7355 249.089V266.219H54.6039ZM45.4697 266.666C43.1304 266.666 41.1254 266.275 39.4545 265.494C37.7836 264.675 36.5026 263.578 35.6115 262.202C34.7203 260.825 34.2747 259.281 34.2747 257.57C34.2747 255.785 34.7017 254.222 35.5558 252.883C36.4469 251.544 37.8393 250.502 39.733 249.758C41.6266 248.977 44.0958 248.586 47.1406 248.586H55.1051V253.664H48.0874C46.0452 253.664 44.6342 253.999 43.8545 254.669C43.1119 255.338 42.7406 256.175 42.7406 257.18C42.7406 258.296 43.1676 259.188 44.0216 259.858C44.9127 260.49 46.1195 260.807 47.6418 260.807C49.0899 260.807 50.3895 260.472 51.5406 259.802C52.6916 259.095 53.5271 258.072 54.0469 256.733L55.3836 260.751C54.7524 262.685 53.6013 264.155 51.9304 265.159C50.2596 266.163 48.106 266.666 45.4697 266.666Z" fill="#5534DA"/>
<path d="M79.4143 266.666C76.8523 266.666 74.3831 266.368 72.0067 265.773C69.6675 265.14 67.8109 264.359 66.4371 263.429L69.3333 257.18C70.7071 258.035 72.3223 258.742 74.1789 259.3C76.0725 259.821 77.9291 260.081 79.7485 260.081C81.7535 260.081 83.1645 259.839 83.9814 259.356C84.8354 258.872 85.2624 258.203 85.2624 257.347C85.2624 256.64 84.9282 256.119 84.2599 255.785C83.6286 255.413 82.7746 255.134 81.6978 254.948C80.621 254.762 79.4329 254.576 78.1333 254.39C76.8708 254.204 75.5898 253.962 74.2902 253.664C72.9907 253.329 71.8025 252.846 70.7257 252.213C69.6489 251.581 68.7763 250.725 68.108 249.647C67.4767 248.568 67.1611 247.173 67.1611 245.462C67.1611 243.564 67.6995 241.89 68.7763 240.44C69.8903 238.989 71.4869 237.854 73.5662 237.036C75.6455 236.18 78.1333 235.752 81.0295 235.752C83.0717 235.752 85.151 235.976 87.2675 236.422C89.3839 236.868 91.1476 237.519 92.5586 238.375L89.6624 244.569C88.2143 243.713 86.7476 243.137 85.2624 242.839C83.8143 242.504 82.4033 242.337 81.0295 242.337C79.0987 242.337 77.6877 242.597 76.7966 243.118C75.9054 243.639 75.4599 244.308 75.4599 245.127C75.4599 245.871 75.7755 246.429 76.4067 246.801C77.0751 247.173 77.9476 247.47 79.0244 247.694C80.1012 247.917 81.2708 248.121 82.5333 248.307C83.8329 248.456 85.1324 248.698 86.432 249.033C87.7316 249.368 88.9012 249.851 89.9409 250.484C91.0177 251.079 91.8902 251.916 92.5586 252.995C93.227 254.036 93.5611 255.413 93.5611 257.124C93.5611 258.984 93.0042 260.639 91.8902 262.09C90.7763 263.504 89.1611 264.62 87.0447 265.438C84.9654 266.256 82.4219 266.666 79.4143 266.666Z" fill="#5534DA"/>
<path d="M104.841 260.081L105.064 249.479L119.043 236.199H129.403L115.98 249.87L111.469 253.553L104.841 260.081ZM97.6561 266.219V224.816H106.345V266.219H97.6561ZM119.99 266.219L109.854 253.608L115.312 246.857L130.517 266.219H119.99Z" fill="#5534DA"/>
<path d="M133.158 266.219V236.199H141.847V266.219H133.158ZM137.503 232.014C135.906 232.014 134.607 231.549 133.604 230.619C132.601 229.689 132.1 228.536 132.1 227.159C132.1 225.783 132.601 224.63 133.604 223.7C134.607 222.77 135.906 222.305 137.503 222.305C139.099 222.305 140.399 222.751 141.401 223.644C142.404 224.499 142.905 225.615 142.905 226.992C142.905 228.443 142.404 229.652 141.401 230.619C140.436 231.549 139.136 232.014 137.503 232.014Z" fill="#5534DA"/>
<path d="M149.703 266.219V235.529C149.703 232.144 150.706 229.447 152.711 227.438C154.716 225.392 157.575 224.369 161.288 224.369C162.55 224.369 163.757 224.499 164.908 224.76C166.096 225.02 167.099 225.429 167.916 225.987L165.632 232.293C165.15 231.958 164.611 231.698 164.017 231.512C163.423 231.326 162.792 231.233 162.123 231.233C160.861 231.233 159.877 231.605 159.172 232.349C158.503 233.055 158.169 234.134 158.169 235.585V238.375L158.392 242.114V266.219H149.703ZM145.08 243.564V236.868H165.855V243.564H145.08Z" fill="#5534DA"/>
<path d="M173.249 277.491C171.69 277.491 170.149 277.249 168.626 276.765C167.104 276.282 165.86 275.612 164.895 274.757L168.069 268.563C168.738 269.158 169.499 269.623 170.353 269.958C171.244 270.293 172.117 270.46 172.971 270.46C174.196 270.46 175.161 270.162 175.867 269.567C176.61 269.009 177.278 268.061 177.872 266.721L179.431 263.039L180.1 262.09L190.849 236.199H199.204L185.669 268.061C184.704 270.479 183.59 272.376 182.328 273.752C181.102 275.129 179.729 276.096 178.206 276.654C176.721 277.212 175.069 277.491 173.249 277.491ZM178.373 267.391L165.006 236.199H173.973L184.333 261.309L178.373 267.391Z" fill="#5534DA"/>
<defs>
<clipPath id="clip0_1_755">
<rect width="200" height="189.796" fill="white" transform="translate(0 2.50879)"/>
</clipPath>
</defs>
</svg>
