<svg width="18" height="18" viewBox="0 0 18 18" fill="none" xmlns="http://www.w3.org/2000/svg">
<path d="M6.51965 12.6155C4.81196 12.6155 3.36582 12.0232 2.18122 10.8386C0.996605 9.65395 0.404297 8.2078 0.404297 6.50012C0.404297 4.79243 0.996605 3.34628 2.18122 2.16167C3.36582 0.977065 4.81196 0.384766 6.51965 0.384766C8.22733 0.384766 9.67348 0.977065 10.8581 2.16167C12.0427 3.34628 12.635 4.79243 12.635 6.50012C12.635 7.21422 12.5151 7.89627 12.2754 8.54627C12.0356 9.19627 11.7158 9.76165 11.3158 10.2424L17.0696 15.9963C17.2081 16.1347 17.2789 16.3088 17.2821 16.5184C17.2853 16.728 17.2145 16.9052 17.0696 17.0501C16.9248 17.195 16.7491 17.2674 16.5427 17.2674C16.3363 17.2674 16.1607 17.195 16.0158 17.0501L10.2619 11.2962C9.76195 11.7091 9.18695 12.0321 8.53695 12.2655C7.88695 12.4988 7.21451 12.6155 6.51965 12.6155ZM6.51965 11.1155C7.80811 11.1155 8.89946 10.6684 9.7937 9.77417C10.6879 8.87993 11.135 7.78858 11.135 6.50012C11.135 5.21165 10.6879 4.1203 9.7937 3.22607C8.89946 2.33183 7.80811 1.88472 6.51965 1.88472C5.23118 1.88472 4.13983 2.33183 3.2456 3.22607C2.35138 4.1203 1.90427 5.21165 1.90427 6.50012C1.90427 7.78858 2.35138 8.87993 3.2456 9.77417C4.13983 10.6684 5.23118 11.1155 6.51965 11.1155Z" fill="#333236"/>
</svg>
