<svg width="38" height="38" viewBox="0 0 38 38" fill="none" xmlns="http://www.w3.org/2000/svg">
<g clip-path="url(#clip0_66_53)">
<path d="M37 19C37 9.05887 28.9411 1 19 1C9.05887 1 1 9.05887 1 19C1 28.9411 9.05887 37 19 37C28.9411 37 37 28.9411 37 19Z" fill="#F1EFFD"/>
<path d="M37 19C37 9.05887 28.9411 1 19 1C9.05887 1 1 9.05887 1 19C1 28.9411 9.05887 37 19 37C28.9411 37 37 28.9411 37 19Z" stroke="white" stroke-width="2"/>
<g clip-path="url(#clip1_66_53)">
<mask id="mask0_66_53" style="mask-type:luminance" maskUnits="userSpaceOnUse" x="10" y="10" width="19" height="18">
<path d="M29 10.0479H10V27.9344H29V10.0479Z" fill="white"/>
</mask>
<g mask="url(#mask0_66_53)">
<path d="M28.997 11.4176C28.9883 11.4033 28.9678 11.3937 28.9474 11.3985C28.769 11.4606 28.5907 11.5132 28.4066 11.5682C27.9009 11.7212 27.3747 11.8215 26.8486 11.9219C26.2464 12.0319 25.6326 12.1108 25.0334 12.2327C24.516 12.3355 24.0016 12.4598 23.5046 12.6223C23.1304 12.7418 22.7621 12.8709 22.4172 13.0358C22.008 13.2199 21.6777 13.4948 21.3561 13.7672C21.0609 14.0206 20.7627 14.274 20.5026 14.5537C20.3564 14.7114 20.2337 14.8835 20.1167 15.0556C20.3009 14.4867 20.5581 13.9131 21.0287 13.4589C21.0638 13.423 21.0229 13.38 20.9732 13.3991C20.8534 13.4469 20.7423 13.5091 20.6283 13.5665C19.7572 14.0493 18.9797 14.6493 18.3103 15.3114C17.9829 15.6388 17.6672 15.9735 17.4071 16.3392C17.106 16.7671 16.878 17.2284 16.7143 17.7041C16.6967 17.422 16.726 17.1399 16.7728 16.8603C16.7815 16.8101 16.7903 16.7623 16.7932 16.7121C16.7932 16.6786 16.8049 16.6308 16.764 16.6117C16.7348 16.5997 16.7055 16.6117 16.6851 16.6308C16.6588 16.6523 16.6383 16.6762 16.6149 16.7001C16.5681 16.7503 16.5214 16.8029 16.4775 16.8555C16.3314 17.0252 16.1998 17.2045 16.0858 17.3909C15.8052 17.8618 15.548 18.3375 15.2878 18.8155C15.0248 19.2936 14.7821 19.7812 14.5278 20.2617C14.2852 20.7158 14.0192 21.1628 13.7444 21.605C13.5954 21.8416 13.4434 22.0783 13.2651 22.3029C13.1891 22.3986 13.1101 22.4918 13.0283 22.5826C13.04 22.5635 13.0517 22.5467 13.0634 22.5277C13.3031 22.1428 13.4668 21.7317 13.6158 21.3182C13.7386 21.0528 13.8614 20.7875 13.9988 20.5294C14.1595 20.2354 14.3028 19.9366 14.4401 19.6355C14.7149 19.0665 15.0481 18.5215 15.4281 17.9933C15.6737 17.6515 15.9367 17.3168 16.1764 16.9702C16.4015 16.6452 16.5798 16.301 16.7844 15.9687C16.9364 15.7201 17.0914 15.4715 17.2229 15.2158C17.2609 15.1441 17.2989 15.07 17.334 14.9959C17.3486 14.96 17.3661 14.9218 17.3749 14.8835C17.3749 14.8692 17.3778 14.8524 17.3661 14.8381C17.3398 14.8046 17.2872 14.8166 17.2551 14.8381C17.1615 14.8955 17.0738 14.9552 16.9832 15.0174C16.6909 15.2205 16.3869 15.4118 16.0741 15.5934C16.7435 14.9289 17.4568 14.2501 17.7783 13.4135C17.8017 13.3418 17.866 13.1625 17.8017 13.1028C17.7578 13.0717 17.7081 13.1147 17.6818 13.141C17.41 13.4183 17.1235 13.686 16.8049 13.9274C16.9277 13.7696 17.0446 13.6071 17.1498 13.4398C17.3252 13.1529 17.4977 12.8637 17.6409 12.5649C17.8104 12.1992 17.9391 11.8239 18.0735 11.4511C18.2109 11.0447 18.3337 10.6336 18.4828 10.2296C18.4974 10.1914 18.512 10.1531 18.5208 10.1125C18.5208 10.1005 18.5266 10.0862 18.5208 10.0742C18.512 10.0527 18.4798 10.0384 18.4535 10.0456C18.4301 10.0503 18.4068 10.0623 18.3863 10.0766C18.0881 10.3061 17.8221 10.5619 17.5357 10.7985C17.3252 10.9754 17.1118 11.1547 16.9101 11.3387C16.5038 11.7164 16.1414 12.1275 15.8549 12.5721C15.5948 12.9761 15.4048 13.4135 15.2878 13.8605C15.13 14.4437 15.0774 15.0413 14.978 15.6317C14.864 15.3759 14.7968 15.1058 14.7821 14.8309C14.7763 14.7401 14.7704 14.6445 14.7646 14.5465C14.7646 14.5011 14.7646 14.4031 14.6798 14.4246C14.6535 14.4365 14.6389 14.4604 14.6243 14.4843C14.598 14.5274 14.5746 14.5728 14.5512 14.6182C14.4781 14.7568 14.3963 14.8907 14.3203 15.0269C14.104 15.4094 13.9169 15.8062 13.8204 16.2197C13.7357 16.5591 13.6918 16.9057 13.6918 17.2499C13.6918 17.7327 13.7824 18.2084 13.7795 18.6936C13.6188 18.4809 13.4551 18.2658 13.3878 18.0172C13.3528 17.9001 13.3264 17.7829 13.3031 17.6658C13.2972 17.6323 13.2884 17.5965 13.2826 17.563C13.2768 17.5391 13.2768 17.508 13.2534 17.4913C13.2008 17.4579 13.1657 17.5152 13.154 17.5511C13.0546 17.8092 13.0049 18.0817 12.9932 18.3542C12.9786 18.6291 13.0108 18.904 13.0429 19.1789C13.0721 19.4275 13.1043 19.6761 13.1248 19.927C13.1101 20.0179 13.1043 20.1087 13.0955 20.1995C13.0604 20.6465 12.9991 21.0935 12.8938 21.5333C12.8237 21.8871 12.7331 22.236 12.5811 22.5755C12.4934 22.8169 12.3794 23.0511 12.2361 23.2734C12.2128 23.3045 12.1923 23.338 12.1718 23.3691C11.8883 23.7825 11.6281 24.2057 11.3417 24.6167C11.1692 24.8582 11.0026 25.1044 10.8477 25.3554C10.7337 25.5179 10.6284 25.6829 10.5378 25.8525C10.4589 25.996 10.3829 26.1417 10.3127 26.2876C10.2864 26.3497 10.2104 26.474 10.2514 26.5361C10.3127 26.5816 10.3624 26.5218 10.4004 26.4573C10.4092 26.4501 10.418 26.4429 10.4238 26.4358C10.4472 26.4095 10.4677 26.3832 10.4852 26.3545C10.532 26.29 10.5787 26.2278 10.6226 26.1657C10.8155 25.8908 11.0026 25.6135 11.1926 25.3363C11.4761 24.906 11.786 24.4877 12.0988 24.0694C12.1514 24.0001 12.2011 23.9308 12.2537 23.859C12.318 23.7825 12.3823 23.7084 12.4495 23.632C12.5694 23.4981 12.698 23.3691 12.8383 23.2495C13.0108 23.0942 13.2271 22.9436 13.4288 22.8121C13.7211 22.6185 13.9841 22.3986 14.2414 22.1763C14.8406 21.6433 15.4048 21.0839 15.9894 20.5389C16.3781 20.1565 16.7961 19.7884 17.2434 19.4538C17.5737 19.2267 17.9157 19.0092 18.2635 18.8012C18.8189 18.4761 19.4035 18.1869 19.956 17.857C20.6078 17.4674 21.245 17.0611 21.8297 16.6045C21.8472 16.5878 21.8677 16.5687 21.856 16.5448C21.8443 16.5137 21.7976 16.5185 21.7654 16.5256C21.6338 16.5543 21.5081 16.5974 21.3796 16.6236C21.248 16.6475 21.1136 16.6691 20.982 16.6882C20.6224 16.7455 20.2541 16.7695 19.8887 16.7718C20.0963 16.7073 20.3067 16.6452 20.5172 16.5878C21.0404 16.4587 21.5696 16.3488 22.081 16.191C22.9901 15.9352 23.7852 15.4763 24.513 14.972C24.6914 14.8501 24.8726 14.7281 25.0363 14.5919C25.0656 14.5632 25.1094 14.5369 25.1152 14.4963C25.1152 14.4485 25.045 14.4485 25.0012 14.458C24.592 14.5297 24.1798 14.5991 23.7647 14.6349C23.49 14.6564 23.2036 14.6732 22.9287 14.6325C23.2474 14.5537 23.5689 14.4843 23.8963 14.4294C24.2003 14.3792 24.5072 14.3314 24.8024 14.2573C25.2614 14.1473 25.6736 13.9322 26.0243 13.6692C26.2347 13.5043 26.4306 13.3274 26.6236 13.1482C26.8281 12.9569 27.0123 12.7514 27.2286 12.5673C27.5121 12.3235 27.822 12.1012 28.1523 11.9028C28.3978 11.7451 28.6609 11.6112 28.9327 11.4845C28.9532 11.475 28.9737 11.4702 28.9941 11.4606C29.0117 11.4511 29.0176 11.4343 29.0087 11.4176H28.997ZM13.0224 22.7739C13.0224 22.7739 13.0224 22.7739 13.0166 22.7739H13.0195H13.0224ZM13.7211 20.2043C13.9461 19.6019 14.1624 18.9972 14.3963 18.3972C14.6155 17.7829 14.8348 17.1686 15.0657 16.5591C15.3229 15.8372 15.5275 15.1034 15.7994 14.3839C15.9923 13.8772 16.2086 13.3752 16.4512 12.8828C16.6704 12.4383 16.916 12.0008 17.2492 11.604C16.9774 12.1323 16.6968 12.6558 16.46 13.1936C16.232 13.6645 16.0391 14.1449 15.8724 14.6325C15.4661 15.7106 15.2206 16.8244 14.8289 17.9048C14.6623 18.3829 14.4752 18.8562 14.2735 19.3271C14.1303 19.6641 13.9608 20.0011 13.8204 20.3381C13.5077 21.0863 13.2183 21.8416 12.8617 22.5778C12.8558 22.5826 12.85 22.5875 12.8441 22.5922C12.8324 22.5898 12.8208 22.5922 12.812 22.5946C12.8734 22.4369 12.9318 22.2766 12.9815 22.1165C13.2183 21.476 13.4784 20.8425 13.7211 20.2043ZM22.5078 14.329C22.1687 14.5202 21.8297 14.7114 21.5081 14.9194C20.9732 15.2684 20.4529 15.6293 19.9356 15.995C19.6344 16.2149 19.3626 16.4611 19.0791 16.6977C18.7984 16.9368 18.5149 17.171 18.2489 17.4196C17.8952 17.7423 17.5328 18.0602 17.1937 18.3948C16.8955 18.6817 16.6237 18.9876 16.3548 19.2936C16.156 19.5111 15.9543 19.7287 15.7672 19.9533C15.5451 20.2139 15.3141 20.4672 15.092 20.7278C14.8698 20.9907 14.6506 21.2537 14.4343 21.5189C14.2969 21.6863 14.1595 21.856 13.9988 22.0114C13.8088 22.1954 13.6129 22.389 13.3966 22.5587C13.3148 22.6185 13.2358 22.6782 13.1569 22.7404C13.1569 22.7404 13.1569 22.7404 13.154 22.7404C13.116 22.7332 13.116 22.7045 13.1248 22.6807C13.2797 22.5396 13.4346 22.4009 13.5866 22.2575C13.7708 22.0831 13.9374 21.8967 14.0923 21.7054C14.9166 20.7206 15.7497 19.7382 16.6354 18.7869C16.9657 18.4355 17.3077 18.0889 17.676 17.7638C18.3103 17.214 18.9651 16.6834 19.6198 16.148C20.4646 15.4596 21.3649 14.8142 22.3441 14.2573C23.1246 13.827 23.9547 13.4589 24.8112 13.141C24.0103 13.4924 23.262 13.9202 22.5078 14.3314V14.329Z" fill="#5534DA"/>
<path d="M23.227 26.4238C23.2037 26.4644 23.1715 26.5002 23.1364 26.5338C22.7681 26.8468 22.2244 27.0094 21.71 27.0931C21.1897 27.1815 20.6547 27.1002 20.1461 27.007C20.6518 26.6652 21.2188 26.266 21.3328 25.709C21.444 25.0422 20.6752 24.6095 19.9357 24.5808C17.4627 24.5139 15.2295 25.611 13.1336 26.56C12.3386 26.9162 11.4529 27.3727 10.5087 27.1934C10.3772 27.1623 10.2427 27.0931 10.2018 26.9783C10.2047 26.9472 10.1872 26.9114 10.1492 26.897C9.85687 26.8493 10.0644 27.1863 10.1989 27.246C11.3593 27.7886 12.9729 26.7823 13.9989 26.3472C15.057 25.874 16.1503 25.3959 17.3019 25.0876C18.2578 24.8557 19.389 24.5976 20.3741 24.8151C20.8768 24.9346 21.2685 25.3649 21.1078 25.7951C20.9061 26.2923 20.3828 26.6436 19.8947 26.9544C19.1259 26.8038 18.3279 26.6389 17.5329 26.7321C17.0944 26.7967 16.5887 26.9233 16.3695 27.2675C16.0275 27.8316 16.8839 27.9416 17.3809 27.9296C18.3133 27.9057 19.2019 27.5926 19.9385 27.1312C20.7745 27.3106 21.6018 27.3775 22.4174 27.0954C22.7857 26.9568 23.2037 26.8038 23.4024 26.4955C23.4638 26.4023 23.2825 26.3258 23.2241 26.419L23.227 26.4238ZM17.3546 27.7695C17.0856 27.7528 16.6121 27.7839 16.4981 27.5376C16.4806 27.2269 16.9015 27.0452 17.2172 26.9663C18.0269 26.7656 18.8804 26.9329 19.6814 27.0859C19.0061 27.4898 18.1964 27.7504 17.3546 27.7695Z" fill="#5534DA"/>
</g>
</g>
</g>
<defs>
<clipPath id="clip0_66_53">
<rect width="38" height="38" fill="white"/>
</clipPath>
<clipPath id="clip1_66_53">
<rect width="19" height="18" fill="white" transform="translate(10 10)"/>
</clipPath>
</defs>
</svg>
