<svg width="88" height="76" viewBox="0 0 88 76" fill="none" xmlns="http://www.w3.org/2000/svg">
<path d="M40.0002 27.8332L11.0819 9.33156C10.2219 8.78135 9.34449 8.73327 8.4497 9.1873C7.55498 9.64132 7.06755 10.3625 6.98741 11.3507C6.90727 11.8689 6.96602 12.3683 7.16366 12.8491C7.3613 13.3298 7.69783 13.7171 8.17324 14.0109L37.973 33.0495C38.6173 33.4394 39.2939 33.6344 40.0027 33.6344C40.7115 33.6344 41.3864 33.4394 42.0274 33.0495L71.8272 14.0109C72.3026 13.7171 72.6458 13.3298 72.8568 12.8491C73.0678 12.3683 73.1198 11.8689 73.013 11.3507C72.9329 10.3625 72.4455 9.64803 71.5508 9.2074C70.656 8.76671 69.7786 8.82146 68.9186 9.37167L40.0002 27.8332ZM69.1669 75.7497C63.964 75.7497 59.5382 73.9255 55.8897 70.2771C52.2412 66.6285 50.417 62.2028 50.417 56.9999C50.417 51.797 52.2412 47.3713 55.8897 43.7227C59.5382 40.0742 63.964 38.25 69.1669 38.25C74.3698 38.25 78.7955 40.0742 82.4441 43.7227C86.0926 47.3713 87.9168 51.797 87.9168 56.9999C87.9168 62.2028 86.0926 66.6285 82.4441 70.2771C78.7955 73.9256 74.3698 75.7498 69.1669 75.7498V75.7497ZM59.8721 58.8428H78.471C78.9669 58.8428 79.3965 58.6585 79.7597 58.2899C80.123 57.9214 80.3046 57.4914 80.3046 56.9999C80.3046 56.5084 80.1203 56.0784 79.7518 55.7099C79.3832 55.3413 78.9531 55.157 78.4617 55.157H59.8628C59.3669 55.157 58.9373 55.3413 58.5741 55.7099C58.2108 56.0784 58.0292 56.5084 58.0292 56.9999C58.0292 57.4914 58.2135 57.9214 58.582 58.2899C58.9506 58.6585 59.3806 58.8428 59.8721 58.8428ZM7.94908 63.2498C5.87776 63.2498 4.1046 62.5123 2.6296 61.0372C1.15453 59.5622 0.416992 57.789 0.416992 55.7177V8.28209C0.416992 6.21077 1.15453 4.43761 2.6296 2.96261C4.1046 1.48754 5.87776 0.75 7.94908 0.75H72.0514C74.1227 0.75 75.8959 1.48754 77.3708 2.96261C78.8459 4.43761 79.5835 6.21077 79.5835 8.28209V32.1122C77.9328 31.3804 76.2395 30.8315 74.5033 30.4656C72.7672 30.0997 70.9884 29.9167 69.1669 29.9167C61.6223 29.9167 55.2223 32.5444 49.9669 37.7999C44.7114 43.0553 42.0837 49.4553 42.0837 56.9999C42.0837 58.0416 42.1478 59.0832 42.2761 60.1248C42.4043 61.1665 42.6232 62.2081 42.933 63.2498H7.94908Z" fill="#D9D9D9"/>
</svg>
