<svg width="110" height="34" viewBox="0 0 110 34" fill="none" xmlns="http://www.w3.org/2000/svg">
<path d="M29.3841 3.0054C29.3708 2.97888 29.3398 2.9612 29.3088 2.97004C29.0385 3.08494 28.7683 3.18216 28.4892 3.28381C27.7227 3.56663 26.9252 3.75224 26.1278 3.93785C25.2151 4.14113 24.2847 4.28696 23.3765 4.51234C22.5923 4.70237 21.8126 4.93216 21.0594 5.23267C20.4923 5.45363 19.9341 5.69227 19.4113 5.99719C18.7911 6.33747 18.2904 6.84567 17.8031 7.34946C17.3556 7.8179 16.9037 8.28633 16.5094 8.80338C16.2879 9.09504 16.1018 9.41323 15.9246 9.73141C16.2037 8.67964 16.5936 7.61903 17.3069 6.77939C17.3601 6.7131 17.298 6.63355 17.2227 6.66891C17.0411 6.75729 16.8727 6.87219 16.6999 6.97825C15.3797 7.87093 14.2012 8.98014 13.1866 10.2043C12.6904 10.8097 12.212 11.4284 11.8176 12.1045C11.3613 12.8955 11.0158 13.7485 10.7676 14.6279C10.7411 14.1064 10.7854 13.5849 10.8563 13.0679C10.8695 12.9751 10.8828 12.8867 10.8873 12.7939C10.8873 12.732 10.905 12.6437 10.843 12.6083C10.7987 12.5862 10.7544 12.6083 10.7233 12.6437C10.6835 12.6834 10.6525 12.7276 10.617 12.7718C10.5461 12.8646 10.4752 12.9618 10.4088 13.0591C10.1873 13.3728 9.9879 13.7043 9.81512 14.049C9.3898 14.9195 8.99993 15.799 8.60562 16.6828C8.20689 17.5666 7.83917 18.4681 7.45373 19.3564C7.086 20.1961 6.68284 21.0224 6.26638 21.84C6.04043 22.2775 5.81005 22.715 5.5398 23.1304C5.42461 23.3072 5.30499 23.4795 5.18094 23.6474C5.19866 23.6121 5.21638 23.5812 5.23411 23.5458C5.5974 22.8343 5.8455 22.0742 6.07145 21.3097C6.25752 20.8192 6.4436 20.3286 6.65183 19.8514C6.8955 19.3078 7.11259 18.7554 7.32081 18.1986C7.73727 17.1468 8.24233 16.1392 8.81828 15.1626C9.19043 14.5306 9.58917 13.912 9.95246 13.2712C10.2936 12.6702 10.5639 12.0338 10.874 11.4195C11.1044 10.9599 11.3392 10.5003 11.5385 10.0275C11.5961 9.89492 11.6537 9.75792 11.7069 9.62093C11.729 9.55464 11.7556 9.48393 11.7689 9.41322C11.7689 9.38671 11.7733 9.35578 11.7556 9.32926C11.7158 9.26739 11.636 9.28949 11.5873 9.32926C11.4455 9.43532 11.3126 9.5458 11.1752 9.6607C10.7322 10.0363 10.2714 10.3899 9.7974 10.7257C10.812 9.49719 11.893 8.24214 12.3803 6.69542C12.4158 6.56285 12.5132 6.23141 12.4158 6.12093C12.3493 6.06348 12.274 6.14302 12.2341 6.19163C11.8221 6.70426 11.3879 7.19921 10.905 7.64555C11.0911 7.35388 11.2683 7.05338 11.4278 6.74403C11.6936 6.21373 11.955 5.67901 12.1721 5.12661C12.429 4.45047 12.624 3.75666 12.8278 3.06727C13.036 2.316 13.2221 1.5559 13.448 0.809058C13.4702 0.738351 13.4923 0.667644 13.5056 0.592518C13.5056 0.570422 13.5145 0.543907 13.5056 0.521811C13.4923 0.482038 13.4436 0.455523 13.4037 0.468781C13.3683 0.477619 13.3328 0.499715 13.3018 0.52623C12.8499 0.950473 12.4468 1.42333 12.0126 1.86083C11.6936 2.18785 11.3702 2.51929 11.0645 2.85956C10.4487 3.5578 9.8993 4.3179 9.46512 5.13987C9.07082 5.88671 8.78284 6.69542 8.60562 7.52181C8.36638 8.60009 8.28664 9.70489 8.136 10.7964C7.96322 10.3236 7.86132 9.82421 7.83917 9.316C7.83031 9.14807 7.82145 8.9713 7.81259 8.79012C7.81259 8.70615 7.81259 8.52497 7.68411 8.56474C7.64423 8.58684 7.62208 8.63103 7.59993 8.67522C7.56005 8.75476 7.52461 8.83873 7.48917 8.92269C7.37841 9.17901 7.25436 9.42648 7.13917 9.67838C6.81132 10.3854 6.52778 11.119 6.38157 11.8836C6.25309 12.5111 6.18664 13.1519 6.18664 13.7882C6.18664 14.6809 6.32398 15.5603 6.31955 16.4574C6.07588 16.0641 5.82778 15.6664 5.72588 15.2068C5.67271 14.9902 5.63284 14.7737 5.5974 14.5572C5.58854 14.4953 5.57524 14.429 5.56638 14.3671C5.55752 14.3229 5.55752 14.2655 5.52208 14.2346C5.44233 14.1727 5.38917 14.2788 5.37145 14.345C5.22081 14.8223 5.1455 15.3261 5.12778 15.8299C5.10562 16.3381 5.15436 16.8463 5.20309 17.3545C5.2474 17.8141 5.29613 18.2737 5.32714 18.7377C5.30499 18.9056 5.29613 19.0736 5.28284 19.2415C5.22968 20.0679 5.13664 20.8943 4.97714 21.7074C4.87081 22.3615 4.73347 23.0067 4.50309 23.6342C4.37018 24.0805 4.1974 24.5136 3.98031 24.9246C3.94487 24.982 3.91385 25.0439 3.88284 25.1014C3.45309 25.8659 3.05879 26.6481 2.62461 27.4082C2.36322 27.8545 2.11069 28.3097 1.87588 28.7737C1.70309 29.0742 1.5436 29.3791 1.40626 29.6929C1.28664 29.958 1.17145 30.2276 1.06512 30.4972C1.02524 30.6121 0.910055 30.8419 0.97208 30.9568C1.06512 31.0408 1.14043 30.9303 1.19803 30.811C1.21132 30.7977 1.22461 30.7844 1.23347 30.7712C1.26892 30.7226 1.29993 30.674 1.32651 30.6209C1.3974 30.5016 1.46828 30.3867 1.53474 30.2718C1.82714 29.7636 2.11069 29.251 2.39866 28.7383C2.82841 27.9429 3.29803 27.1695 3.77208 26.3962C3.85183 26.268 3.92714 26.1399 4.00689 26.0073C4.10436 25.8659 4.20183 25.7289 4.30373 25.5875C4.48537 25.34 4.68031 25.1014 4.89297 24.8804C5.15436 24.5931 5.48221 24.3147 5.7879 24.0717C6.23094 23.7137 6.62968 23.3072 7.01955 22.8962C7.92778 21.9107 8.78284 20.8766 9.66892 19.869C10.2582 19.162 10.8917 18.4814 11.5695 17.8627C12.0702 17.4429 12.5885 17.0407 13.1158 16.6563C13.9575 16.0553 14.8436 15.5205 15.6809 14.9107C16.6689 14.1904 17.6347 13.4391 18.5208 12.595C18.5474 12.5641 18.5784 12.5288 18.5607 12.4846C18.543 12.4271 18.4721 12.436 18.4233 12.4492C18.224 12.5022 18.0335 12.5818 17.8385 12.6304C17.6392 12.6746 17.4354 12.7144 17.236 12.7497C16.6911 12.8558 16.1328 12.9 15.579 12.9044C15.8936 12.7851 16.2126 12.6702 16.5316 12.5641C17.3246 12.3255 18.1265 12.1222 18.9018 11.8305C20.2797 11.3577 21.4847 10.5092 22.5879 9.57673C22.8582 9.35136 23.1328 9.12598 23.3809 8.87408C23.4252 8.82105 23.4917 8.77244 23.5006 8.69732C23.5006 8.60893 23.3942 8.60893 23.3278 8.62661C22.7075 8.75918 22.0828 8.88734 21.4537 8.95363C21.0373 8.9934 20.6031 9.02434 20.1866 8.94921C20.6695 8.80338 21.1569 8.67522 21.6531 8.57358C22.1139 8.48077 22.579 8.39239 23.0265 8.2554C23.7221 8.05211 24.3468 7.65439 24.8784 7.16828C25.1974 6.86335 25.4942 6.53633 25.7866 6.20489C26.0968 5.85136 26.3759 5.47131 26.7037 5.13103C27.1335 4.68027 27.6031 4.26929 28.1037 3.90249C28.4759 3.61083 28.8746 3.36335 29.2866 3.12913C29.3176 3.11146 29.3487 3.10262 29.3797 3.08494C29.4063 3.06727 29.4151 3.03633 29.4018 3.0054H29.3841ZM5.17208 24.001C5.17208 24.001 5.17208 24.001 5.16322 24.001H5.16765H5.17208ZM6.23094 19.2503C6.57208 18.1367 6.89993 17.0187 7.25436 15.9094C7.58664 14.7737 7.91892 13.638 8.26892 12.5111C8.65879 11.1765 8.96892 9.81979 9.38094 8.48961C9.67335 7.55274 10.0012 6.62471 10.3689 5.71436C10.7012 4.89239 11.0733 4.08368 11.5784 3.35009C11.1664 4.32674 10.7411 5.29454 10.3822 6.28886C10.0366 7.15944 9.74423 8.04769 9.4917 8.94921C8.87588 10.9423 8.50373 13.0016 7.91006 14.9991C7.65752 15.8829 7.37398 16.7579 7.06828 17.6285C6.85119 18.2516 6.59423 18.8747 6.38157 19.4978C5.90752 20.881 5.46892 22.2775 4.92841 23.6386C4.91955 23.6474 4.91069 23.6563 4.90183 23.6651C4.88411 23.6607 4.86638 23.6651 4.85309 23.6695C4.94613 23.3779 5.03474 23.0818 5.11005 22.7857C5.46892 21.6014 5.86322 20.4303 6.23094 19.2503ZM19.5487 8.38797C19.0347 8.74151 18.5208 9.09504 18.0335 9.47951C17.2227 10.1247 16.4341 10.792 15.6499 11.4681C15.1936 11.8747 14.7816 12.3299 14.3518 12.7674C13.9265 13.2093 13.4968 13.6424 13.0936 14.102C12.5575 14.6986 12.0082 15.2863 11.4942 15.905C11.0423 16.4353 10.6303 17.001 10.2227 17.5666C9.92145 17.9688 9.61575 18.3709 9.33221 18.7863C8.9955 19.268 8.6455 19.7365 8.30879 20.2181C7.97208 20.7043 7.6398 21.1904 7.31195 21.6809C7.10373 21.9902 6.8955 22.304 6.65183 22.5913C6.36385 22.9315 6.06702 23.2895 5.73917 23.6032C5.61512 23.7137 5.4955 23.8242 5.37588 23.9391C5.37588 23.9391 5.37588 23.9391 5.37145 23.9391C5.31385 23.9258 5.31385 23.8728 5.32714 23.8286C5.56195 23.5679 5.79676 23.3116 6.02714 23.0464C6.30626 22.7238 6.55879 22.3791 6.7936 22.0256C8.04297 20.2049 9.30562 18.3886 10.648 16.6298C11.1487 15.9801 11.667 15.3394 12.2252 14.7383C13.1866 13.7219 14.179 12.7409 15.1714 11.751C16.4518 10.4782 17.8164 9.28507 19.3006 8.2554C20.4835 7.45994 21.7417 6.77939 23.0398 6.19163C21.8259 6.84126 20.6917 7.63229 19.5487 8.39239V8.38797Z" fill="#5534DA"/>
<path d="M20.6389 30.749C20.6035 30.8241 20.5547 30.8904 20.5016 30.9523C19.9433 31.5312 19.1193 31.8317 18.3395 31.9864C17.5509 32.1499 16.7402 31.9996 15.9693 31.8273C16.7357 31.1954 17.5952 30.4574 17.768 29.4277C17.9364 28.1947 16.7712 27.3949 15.6503 27.3418C11.9022 27.2181 8.51739 29.2465 5.34081 31.0009C4.13574 31.6594 2.79334 32.5034 1.36233 32.172C1.16296 32.1146 0.959161 31.9864 0.897136 31.7743C0.901566 31.7168 0.874984 31.6505 0.817389 31.624C0.374351 31.5356 0.688908 32.1587 0.892706 32.2692C2.65157 33.2724 5.09714 31.4119 6.6522 30.6076C8.256 29.7326 9.91296 28.8488 11.6585 28.2787C13.1073 27.85 14.8218 27.3728 16.3149 27.7749C17.0769 27.9959 17.6706 28.7913 17.4269 29.5868C17.1212 30.506 16.3281 31.1556 15.5883 31.7301C14.4231 31.4517 13.2136 31.1467 12.0085 31.3191C11.344 31.4384 10.5775 31.6726 10.2452 32.309C9.72688 33.3519 11.025 33.5552 11.7781 33.5331C13.1914 33.4889 14.5383 32.91 15.6547 32.0571C16.9218 32.3885 18.1756 32.5123 19.4117 31.9908C19.9699 31.7345 20.6035 31.4517 20.9047 30.8816C20.9978 30.7092 20.7231 30.5678 20.6345 30.7402L20.6389 30.749ZM11.7383 33.237C11.3307 33.2061 10.613 33.2635 10.4402 32.8084C10.4136 32.2339 11.0516 31.898 11.53 31.7522C12.7573 31.381 14.0509 31.6903 15.2649 31.9731C14.2414 32.72 13.0142 33.2017 11.7383 33.237Z" fill="#5534DA"/>
<path d="M34.4377 23.5066V10.8716H29.4072V7.93529H43.1062V10.8716H38.0757V23.5066H34.4377Z" fill="#5534DA"/>
<path d="M51.1031 23.5066V21.1709L50.8785 20.6593V16.4772C50.8785 15.7358 50.6464 15.1574 50.1823 14.7422C49.7332 14.3269 49.037 14.1193 48.0938 14.1193C47.45 14.1193 46.8137 14.2231 46.1849 14.4307C45.5711 14.6235 45.0471 14.8905 44.6129 15.2315L43.3553 12.8069C44.014 12.3472 44.8075 11.9912 45.7358 11.7391C46.664 11.487 47.6072 11.361 48.5654 11.361C50.4069 11.361 51.8367 11.791 52.8547 12.6512C53.8728 13.5113 54.3818 14.8534 54.3818 16.6775V23.5066H51.1031ZM47.4201 23.6845C46.4769 23.6845 45.6684 23.5288 44.9947 23.2174C44.321 22.8911 43.8044 22.4537 43.4451 21.905C43.0858 21.3563 42.9062 20.7408 42.9062 20.0586C42.9062 19.3468 43.0783 18.724 43.4227 18.1901C43.782 17.6562 44.3434 17.241 45.107 16.9444C45.8705 16.633 46.8661 16.4772 48.0938 16.4772H51.3052V18.5015H48.4756C47.6521 18.5015 47.0832 18.635 46.7688 18.9019C46.4694 19.1689 46.3197 19.5025 46.3197 19.9029C46.3197 20.3478 46.4918 20.7037 46.8362 20.9707C47.1955 21.2228 47.6821 21.3488 48.2959 21.3488C48.8798 21.3488 49.4038 21.2154 49.8679 20.9484C50.332 20.6667 50.6689 20.2588 50.8785 19.725L51.4175 21.3266C51.163 22.0977 50.6988 22.6835 50.0251 23.0839C49.3514 23.4843 48.483 23.6845 47.4201 23.6845Z" fill="#5534DA"/>
<path d="M61.1069 23.6845C60.0739 23.6845 59.0783 23.5659 58.1201 23.3286C57.1769 23.0765 56.4283 22.7651 55.8743 22.3943L57.0421 19.9029C57.5961 20.244 58.2473 20.5258 58.9959 20.7482C59.7595 20.9558 60.508 21.0597 61.2416 21.0597C62.0501 21.0597 62.619 20.9633 62.9484 20.7705C63.2927 20.5777 63.4649 20.3108 63.4649 19.9697C63.4649 19.6879 63.3302 19.4803 63.0607 19.3468C62.8062 19.1985 62.4618 19.0873 62.0276 19.0131C61.5935 18.939 61.1144 18.8648 60.5904 18.7907C60.0814 18.7165 59.5648 18.6202 59.0408 18.5015C58.5168 18.368 58.0377 18.1753 57.6036 17.9232C57.1694 17.671 56.8176 17.33 56.5481 16.8999C56.2936 16.4698 56.1663 15.9137 56.1663 15.2315C56.1663 14.4752 56.3834 13.8079 56.8176 13.2295C57.2667 12.6512 57.9105 12.1989 58.7489 11.8726C59.5873 11.5315 60.5904 11.361 61.7582 11.361C62.5816 11.361 63.42 11.4499 64.2734 11.6279C65.1268 11.8059 65.8379 12.0654 66.4068 12.4065L65.239 14.8756C64.6552 14.5345 64.0638 14.3047 63.4649 14.186C62.881 14.0526 62.3121 13.9858 61.7582 13.9858C60.9796 13.9858 60.4107 14.0897 60.0514 14.2973C59.6921 14.5049 59.5124 14.7718 59.5124 15.0981C59.5124 15.3947 59.6397 15.6171 59.8942 15.7654C60.1637 15.9137 60.5155 16.0324 60.9497 16.1213C61.3839 16.2103 61.8555 16.2919 62.3645 16.366C62.8885 16.4253 63.4125 16.5217 63.9365 16.6552C64.4605 16.7887 64.9321 16.9815 65.3513 17.2336C65.7855 17.4708 66.1373 17.8045 66.4068 18.2346C66.6763 18.6498 66.8111 19.1985 66.8111 19.8807C66.8111 20.6222 66.5865 21.2821 66.1373 21.8605C65.6882 22.424 65.0369 22.8689 64.1835 23.1951C63.3451 23.5214 62.3196 23.6845 61.1069 23.6845Z" fill="#5534DA"/>
<path d="M71.3592 21.0597L71.449 16.8332L77.0858 11.5389H81.2628L75.8506 16.9889L74.0316 18.457L71.3592 21.0597ZM68.4622 23.5066V7.00101H71.9655V23.5066H68.4622ZM77.4676 23.5066L73.3803 18.4793L75.5811 15.7877L81.712 23.5066H77.4676Z" fill="#5534DA"/>
<path d="M82.7771 23.5066V11.5389H86.2804V23.5066H82.7771ZM84.5288 9.87058C83.885 9.87058 83.361 9.6852 82.9568 9.31446C82.5525 8.94371 82.3504 8.48399 82.3504 7.93529C82.3504 7.38659 82.5525 6.92686 82.9568 6.55612C83.361 6.18537 83.885 6 84.5288 6C85.1726 6 85.6966 6.17796 86.1008 6.53387C86.505 6.87496 86.7071 7.31985 86.7071 7.86856C86.7071 8.44692 86.505 8.92888 86.1008 9.31446C85.7115 9.6852 85.1875 9.87058 84.5288 9.87058Z" fill="#5534DA"/>
<path d="M89.4481 23.5066V11.272C89.4481 9.92248 89.8524 8.84732 90.6608 8.04651C91.4693 7.23087 92.6221 6.82305 94.1193 6.82305C94.6283 6.82305 95.1149 6.87496 95.579 6.97877C96.0581 7.08258 96.4623 7.2457 96.7917 7.46815L95.8709 9.9818C95.6763 9.84833 95.4592 9.74452 95.2197 9.67037C94.9801 9.59623 94.7256 9.55915 94.4561 9.55915C93.9471 9.55915 93.5503 9.70745 93.2659 10.004C92.9964 10.2858 92.8616 10.7159 92.8616 11.2942V12.4065L92.9515 13.8969V23.5066H89.4481ZM87.5842 14.4752V11.8059H95.9608V14.4752H87.5842Z" fill="#5534DA"/>
<path d="M98.9421 28C98.3133 28 97.692 27.9036 97.0782 27.7108C96.4643 27.518 95.9628 27.2511 95.5735 26.91L96.8536 24.4408C97.1231 24.6781 97.43 24.8635 97.7743 24.997C98.1337 25.1304 98.4855 25.1972 98.8298 25.1972C99.3239 25.1972 99.7132 25.0785 99.9976 24.8413C100.297 24.6188 100.567 24.2406 100.806 23.7068L101.435 22.2386L101.704 21.8605L106.039 11.5389H109.407L103.95 24.2406C103.561 25.2046 103.112 25.9609 102.603 26.5096C102.109 27.0583 101.555 27.4439 100.941 27.6663C100.342 27.8888 99.6757 28 98.9421 28ZM101.008 23.9737L95.6184 11.5389H99.2341L103.411 21.549L101.008 23.9737Z" fill="#5534DA"/>
</svg>
