<svg width="24" height="28" viewBox="0 0 24 28" fill="none" xmlns="http://www.w3.org/2000/svg">
<path d="M23.8028 2.51677C23.7919 2.49502 23.7664 2.48051 23.741 2.48776C23.5192 2.58204 23.2975 2.66181 23.0685 2.74521C22.4396 2.97728 21.7852 3.12957 21.1309 3.28186C20.3821 3.44866 19.6187 3.56831 18.8735 3.75324C18.23 3.90916 17.5902 4.09771 16.9723 4.34428C16.507 4.52558 16.0489 4.72138 15.62 4.97158C15.111 5.25078 14.7003 5.66777 14.3004 6.08113C13.9332 6.46549 13.5625 6.84985 13.2389 7.27409C13.0572 7.51341 12.9045 7.77448 12.7591 8.03555C12.9881 7.17256 13.308 6.30232 13.8933 5.61338C13.9369 5.55899 13.886 5.49372 13.8242 5.52273C13.6751 5.59525 13.537 5.68953 13.3952 5.77655C12.312 6.509 11.345 7.41913 10.5125 8.42353C10.1054 8.92029 9.7128 9.42794 9.38927 9.98271C9.01484 10.6318 8.7313 11.3316 8.52773 12.0532C8.50592 11.6253 8.54227 11.1974 8.60043 10.7732C8.61134 10.697 8.62224 10.6245 8.62588 10.5484C8.62588 10.4976 8.64042 10.4251 8.58953 10.3961C8.55317 10.3779 8.51682 10.3961 8.49138 10.4251C8.45866 10.4577 8.43321 10.494 8.40413 10.5302C8.34597 10.6064 8.28781 10.6862 8.23328 10.7659C8.05152 11.0234 7.88794 11.2953 7.74616 11.5782C7.39719 12.2925 7.07729 13.0141 6.75376 13.7393C6.42659 14.4645 6.12487 15.2042 5.80861 15.933C5.50689 16.6219 5.17609 17.3 4.83438 17.9708C4.64899 18.3298 4.45996 18.6887 4.23821 19.0296C4.1437 19.1746 4.04555 19.316 3.94376 19.4538C3.9583 19.4248 3.97284 19.3994 3.98738 19.3704C4.28547 18.7866 4.48904 18.163 4.67443 17.5357C4.82711 17.1332 4.97979 16.7307 5.15064 16.3391C5.35058 15.8931 5.5287 15.4398 5.69956 14.983C6.04126 14.12 6.45567 13.2933 6.92825 12.4919C7.2336 11.9734 7.56077 11.4657 7.85885 10.94C8.13876 10.4468 8.36051 9.9247 8.61497 9.42068C8.804 9.04358 8.99667 8.66648 9.16025 8.27849C9.20751 8.16971 9.25477 8.05731 9.29839 7.9449C9.31656 7.89051 9.33837 7.83249 9.34928 7.77448C9.34928 7.75272 9.35292 7.72734 9.33838 7.70558C9.30566 7.65482 9.24022 7.67295 9.20024 7.70558C9.08391 7.79261 8.97486 7.88326 8.86217 7.97753C8.49865 8.28574 8.12059 8.57582 7.73162 8.8514C8.56408 7.84337 9.45107 6.81359 9.85094 5.54449C9.88002 5.43571 9.95999 5.16376 9.88002 5.07311C9.82549 5.02597 9.76369 5.09124 9.73097 5.13112C9.3929 5.55174 9.03665 5.95785 8.64042 6.32408C8.7931 6.08476 8.9385 5.83819 9.06937 5.58437C9.28748 5.14925 9.50196 4.71051 9.68008 4.25725C9.89092 3.70248 10.0509 3.13319 10.2181 2.56754C10.3889 1.95112 10.5416 1.32744 10.727 0.714649C10.7452 0.656633 10.7634 0.598617 10.7743 0.536975C10.7743 0.518845 10.7815 0.497089 10.7743 0.478959C10.7634 0.446325 10.7234 0.424569 10.6907 0.435447C10.6616 0.442699 10.6325 0.460829 10.6071 0.482585C10.2363 0.830681 9.90546 1.21866 9.54922 1.57764C9.28748 1.84596 9.02211 2.11791 8.77129 2.39711C8.266 2.97002 7.81523 3.5937 7.45898 4.26813C7.13545 4.88093 6.89917 5.54449 6.75376 6.22255C6.55746 7.10729 6.49203 8.01379 6.36843 8.90942C6.22666 8.52143 6.14305 8.1117 6.12487 7.69471C6.1176 7.55692 6.11033 7.41188 6.10306 7.26321C6.10306 7.19432 6.10306 7.04565 5.99764 7.07828C5.96492 7.09642 5.94675 7.13268 5.92857 7.16893C5.89586 7.2342 5.86677 7.3031 5.83769 7.37199C5.74681 7.5823 5.64503 7.78536 5.55051 7.99204C5.28151 8.5722 5.04886 9.17412 4.9289 9.80141C4.82348 10.3163 4.76895 10.8421 4.76895 11.3642C4.76895 12.0967 4.88164 12.8182 4.878 13.5543C4.67807 13.2316 4.4745 12.9053 4.39089 12.5282C4.34727 12.3505 4.31455 12.1728 4.28547 11.9951C4.2782 11.9444 4.26729 11.89 4.26002 11.8392C4.25275 11.803 4.25275 11.7558 4.22367 11.7304C4.15824 11.6797 4.11462 11.7667 4.10007 11.8211C3.97648 12.2127 3.91468 12.6261 3.90014 13.0394C3.88196 13.4564 3.92195 13.8734 3.96194 14.2904C3.99829 14.6675 4.03828 15.0446 4.06372 15.4253C4.04555 15.5631 4.03828 15.7009 4.02737 15.8387C3.98375 16.5168 3.90741 17.1948 3.77654 17.862C3.6893 18.3987 3.57661 18.9281 3.38758 19.443C3.27852 19.8092 3.13675 20.1645 2.95863 20.5018C2.92955 20.5489 2.9041 20.5997 2.87865 20.6468C2.52604 21.2741 2.20251 21.9159 1.84626 22.5396C1.63179 22.9058 1.42458 23.2793 1.23192 23.66C1.09014 23.9066 0.959276 24.1568 0.846586 24.4142C0.748436 24.6318 0.653921 24.853 0.566677 25.0741C0.53396 25.1684 0.439445 25.357 0.490338 25.4512C0.566677 25.5201 0.628475 25.4295 0.675732 25.3316C0.686638 25.3207 0.697543 25.3098 0.704814 25.299C0.733895 25.2591 0.759341 25.2192 0.781152 25.1757C0.839315 25.0778 0.897478 24.9835 0.952006 24.8892C1.19193 24.4722 1.42458 24.0516 1.66087 23.631C2.01348 22.9783 2.39881 22.3438 2.78777 21.7092C2.85321 21.6041 2.91501 21.4989 2.98044 21.3901C3.06041 21.2741 3.14039 21.1617 3.224 21.0457C3.37304 20.8426 3.53299 20.6468 3.70747 20.4655C3.92195 20.2298 4.19095 20.0014 4.44178 19.8019C4.8053 19.5082 5.13247 19.1746 5.45236 18.8374C6.19758 18.0288 6.89917 17.1803 7.6262 16.3536C8.10968 15.7734 8.62951 15.215 9.1857 14.7074C9.59647 14.3629 10.0218 14.033 10.4544 13.7175C11.1451 13.2244 11.8721 12.7856 12.5591 12.2852C13.3698 11.6942 14.1623 11.0778 14.8893 10.3852C14.9111 10.3598 14.9366 10.3308 14.922 10.2946C14.9075 10.2474 14.8493 10.2547 14.8093 10.2655C14.6457 10.3091 14.4894 10.3743 14.3295 10.4142C14.1659 10.4505 13.9987 10.4831 13.8351 10.5121C13.388 10.5991 12.9299 10.6354 12.4755 10.639C12.7336 10.5411 12.9954 10.4468 13.2571 10.3598C13.9078 10.164 14.5658 9.99722 15.2019 9.7579C16.3325 9.36992 17.3212 8.67373 18.2264 7.90864C18.4481 7.72371 18.6735 7.53879 18.8771 7.33211C18.9134 7.28859 18.968 7.24871 18.9752 7.18707C18.9752 7.11455 18.888 7.11455 18.8335 7.12905C18.3245 7.23783 17.812 7.34298 17.2958 7.39737C16.9541 7.43001 16.5978 7.45539 16.2561 7.39375C16.6524 7.27409 17.0522 7.16894 17.4594 7.08554C17.8374 7.00939 18.2191 6.93687 18.5863 6.82447C19.157 6.65767 19.6696 6.33133 20.1058 5.93247C20.3675 5.68227 20.6111 5.41395 20.851 5.142C21.1055 4.85192 21.3345 4.54008 21.6035 4.26088C21.9561 3.89103 22.3414 3.55381 22.7522 3.25285C23.0576 3.01354 23.3847 2.81048 23.7228 2.6183C23.7482 2.6038 23.7737 2.59654 23.7991 2.58204C23.8209 2.56754 23.8282 2.54215 23.8173 2.51677H23.8028ZM3.93649 19.7439C3.93649 19.7439 3.93649 19.7439 3.92922 19.7439H3.93286H3.93649ZM4.8053 15.846C5.08521 14.9322 5.35421 14.0148 5.64503 13.1047C5.91767 12.1728 6.19031 11.2409 6.47748 10.3163C6.79738 9.22125 7.05184 8.10807 7.38992 7.01664C7.62984 6.24793 7.89884 5.48647 8.20056 4.73951C8.4732 4.06508 8.77856 3.40152 9.19297 2.7996C8.85489 3.60095 8.50592 4.39504 8.21147 5.21089C7.92792 5.92522 7.688 6.65404 7.4808 7.39375C6.97551 9.02908 6.67015 10.7188 6.18304 12.3577C5.97583 13.0829 5.74318 13.8009 5.49235 14.5152C5.31423 15.0265 5.10339 15.5378 4.9289 16.049C4.53993 17.184 4.18005 18.3298 3.73656 19.4466C3.72929 19.4538 3.72202 19.4611 3.71475 19.4683C3.7002 19.4647 3.68566 19.4683 3.67476 19.472C3.7511 19.2326 3.8238 18.9897 3.8856 18.7468C4.18005 17.775 4.50358 16.8141 4.8053 15.846ZM15.7327 6.93325C15.311 7.22333 14.8893 7.51341 14.4894 7.82887C13.8242 8.35826 13.1771 8.90579 12.5337 9.46057C12.1593 9.79416 11.8212 10.1676 11.4686 10.5266C11.1196 10.8892 10.767 11.2446 10.4362 11.6217C9.99634 12.1112 9.54558 12.5934 9.1239 13.1011C8.75311 13.5362 8.41504 14.0003 8.0806 14.4645C7.83341 14.7944 7.58258 15.1244 7.34993 15.4652C7.07365 15.8605 6.78648 16.2448 6.5102 16.6401C6.23393 17.0389 5.96129 17.4378 5.69229 17.8403C5.52143 18.0941 5.35058 18.3515 5.15064 18.5872C4.91436 18.8664 4.6708 19.1601 4.4018 19.4176C4.30001 19.5082 4.20186 19.5989 4.10371 19.6932C4.10371 19.6932 4.10371 19.6932 4.10007 19.6932C4.05282 19.6823 4.05282 19.6388 4.06372 19.6025C4.25639 19.3886 4.44905 19.1783 4.63808 18.9607C4.8671 18.696 5.0743 18.4132 5.26697 18.1231C6.29209 16.6292 7.32812 15.1389 8.42958 13.6957C8.84035 13.1627 9.26567 12.6369 9.7237 12.1438C10.5125 11.3098 11.3268 10.5049 12.1411 9.69263C13.1917 8.64834 14.3113 7.66932 15.5291 6.82447C16.4997 6.17178 17.5321 5.61338 18.5972 5.13112C17.6011 5.66414 16.6705 6.3132 15.7327 6.93687V6.93325Z" fill="#5534DA"/>
<path d="M16.6268 25.2815C16.5977 25.3432 16.5578 25.3976 16.5141 25.4483C16.0561 25.9233 15.38 26.1699 14.7402 26.2968C14.0931 26.431 13.4279 26.3077 12.7953 26.1663C13.4242 25.6477 14.1295 25.0422 14.2712 24.1973C14.4094 23.1857 13.4533 22.5294 12.5336 22.4859C9.45824 22.3843 6.68096 24.0487 4.07453 25.4882C3.08576 26.0285 1.9843 26.721 0.810139 26.4491C0.646555 26.402 0.479337 26.2968 0.428444 26.1228C0.432079 26.0756 0.410268 26.0212 0.363011 25.9995C-0.000507474 25.9269 0.257591 26.4382 0.424809 26.5289C1.86798 27.352 3.8746 25.8254 5.15055 25.1655C6.46648 24.4475 7.82604 23.7223 9.25831 23.2546C10.447 22.9029 11.8538 22.5113 13.0789 22.8412C13.7041 23.0225 14.1913 23.6752 13.9913 24.3279C13.7405 25.0821 13.0898 25.6151 12.4827 26.0865C11.5267 25.8581 10.5343 25.6079 9.54549 25.7493C9.00021 25.8472 8.37132 26.0394 8.09868 26.5615C7.67337 27.4172 8.73847 27.584 9.35646 27.5659C10.5161 27.5296 11.6212 27.0546 12.5372 26.3548C13.5769 26.6268 14.6057 26.7283 15.6199 26.3004C16.0779 26.0901 16.5977 25.8581 16.8449 25.3903C16.9213 25.2489 16.6959 25.1329 16.6232 25.2743L16.6268 25.2815ZM9.32374 27.323C8.9893 27.2976 8.4004 27.3447 8.25863 26.9712C8.23682 26.4999 8.76029 26.2243 9.15289 26.1046C10.1598 25.8 11.2213 26.0539 12.2173 26.2859C11.3776 26.8987 10.3707 27.294 9.32374 27.323Z" fill="#5534DA"/>
</svg>
