<svg width="76" height="76" viewBox="0 0 76 76" fill="none" xmlns="http://www.w3.org/2000/svg">
<rect width="76" height="76" rx="6" fill="#F5F5F5"/>
<path d="M36.6724 39.3266H30.9228C30.5504 39.3266 30.2361 39.1985 29.9799 38.9424C29.7238 38.6862 29.5957 38.3719 29.5957 37.9995C29.5957 37.6271 29.7238 37.3128 29.9799 37.0567C30.2361 36.8005 30.5504 36.6724 30.9228 36.6724H36.6724V30.9228C36.6724 30.5504 36.8005 30.2361 37.0567 29.9799C37.3128 29.7238 37.6271 29.5957 37.9995 29.5957C38.3719 29.5957 38.6862 29.7238 38.9424 29.9799C39.1985 30.2361 39.3266 30.5504 39.3266 30.9228V36.6724H45.0762C45.4487 36.6724 45.7629 36.8005 46.0191 37.0567C46.2753 37.3128 46.4033 37.6271 46.4033 37.9995C46.4033 38.3719 46.2753 38.6862 46.0191 38.9424C45.7629 39.1985 45.4487 39.3266 45.0762 39.3266H39.3266V45.0762C39.3266 45.4487 39.1985 45.7629 38.9424 46.0191C38.6862 46.2753 38.3719 46.4033 37.9995 46.4033C37.6271 46.4033 37.3128 46.2753 37.0567 46.0191C36.8005 45.7629 36.6724 45.4487 36.6724 45.0762V39.3266Z" fill="#5534DA"/>
</svg>
